<?xml version="1.0" standalone="no"?>
<svg xmlns:xlink="http://www.w3.org/1999/xlink" id="wave" style="transform:rotate(180deg); transition: 0.3s" viewBox="0 0 1440 440" version="1.1" xmlns="http://www.w3.org/2000/svg"><defs><linearGradient id="sw-gradient-0" x1="0" x2="0" y1="1" y2="0"><stop stop-color="rgba(241.364, 241, 244, 1)" offset="0%"/><stop stop-color="rgba(111, 99, 255, 1)" offset="100%"/></linearGradient></defs><path style="transform:translate(0, 0px); opacity:1" fill="url(#sw-gradient-0)" d="M0,396L60,396C120,396,240,396,360,388.7C480,381,600,367,720,315.3C840,264,960,176,1080,124.7C1200,73,1320,59,1440,73.3C1560,88,1680,132,1800,183.3C1920,235,2040,293,2160,308C2280,323,2400,293,2520,256.7C2640,220,2760,176,2880,139.3C3000,103,3120,73,3240,80.7C3360,88,3480,132,3600,168.7C3720,205,3840,235,3960,212.7C4080,191,4200,117,4320,95.3C4440,73,4560,103,4680,161.3C4800,220,4920,308,5040,308C5160,308,5280,220,5400,198C5520,176,5640,220,5760,264C5880,308,6000,352,6120,344.7C6240,337,6360,279,6480,220C6600,161,6720,103,6840,95.3C6960,88,7080,132,7200,154C7320,176,7440,176,7560,183.3C7680,191,7800,205,7920,176C8040,147,8160,73,8280,73.3C8400,73,8520,147,8580,183.3L8640,220L8640,440L8580,440C8520,440,8400,440,8280,440C8160,440,8040,440,7920,440C7800,440,7680,440,7560,440C7440,440,7320,440,7200,440C7080,440,6960,440,6840,440C6720,440,6600,440,6480,440C6360,440,6240,440,6120,440C6000,440,5880,440,5760,440C5640,440,5520,440,5400,440C5280,440,5160,440,5040,440C4920,440,4800,440,4680,440C4560,440,4440,440,4320,440C4200,440,4080,440,3960,440C3840,440,3720,440,3600,440C3480,440,3360,440,3240,440C3120,440,3000,440,2880,440C2760,440,2640,440,2520,440C2400,440,2280,440,2160,440C2040,440,1920,440,1800,440C1680,440,1560,440,1440,440C1320,440,1200,440,1080,440C960,440,840,440,720,440C600,440,480,440,360,440C240,440,120,440,60,440L0,440Z"/></svg>